<?xml version="1.0" encoding="UTF-8" standalone="no"?>
<!DOCTYPE svg PUBLIC "-//W3C//DTD SVG 1.1//EN"
 "http://www.w3.org/Graphics/SVG/1.1/DTD/svg11.dtd">
<!-- Generated by graphviz version 2.40.1 (20161225.0304)
 -->
<!-- Title: dependencies Pages: 1 -->
<svg width="504pt" height="284pt"
 viewBox="0.00 0.00 504.00 284.00" xmlns="http://www.w3.org/2000/svg" xmlns:xlink="http://www.w3.org/1999/xlink">
<g id="graph0" class="graph" transform="scale(1 1) rotate(0) translate(4 280)">
<title>dependencies</title>
<polygon fill="#ffffff" stroke="transparent" points="-4,4 -4,-280 500,-280 500,4 -4,4"/>
<text text-anchor="start" x="227.0091" y="-42.4" font-family="sans-serif" font-weight="bold" font-size="14.00" fill="#000000">Legend</text>
<polygon fill="#ffffb3" stroke="transparent" points="14,-10 14,-30 34,-30 34,-10 14,-10"/>
<text text-anchor="start" x="37.629" y="-15.4" font-family="sans-serif" font-size="14.00" fill="#000000"> &#160;Declarations</text>
<polygon fill="#8dd3c7" stroke="transparent" points="127,-10 127,-30 147,-30 147,-10 127,-10"/>
<text text-anchor="start" x="150.7251" y="-15.4" font-family="sans-serif" font-size="14.00" fill="#000000"> &#160;Module</text>
<polygon fill="#80b1d3" stroke="transparent" points="213,-10 213,-30 233,-30 233,-10 213,-10"/>
<text text-anchor="start" x="236.7812" y="-15.4" font-family="sans-serif" font-size="14.00" fill="#000000"> &#160;Bootstrap</text>
<polygon fill="#fdb462" stroke="transparent" points="310,-10 310,-30 330,-30 330,-10 310,-10"/>
<text text-anchor="start" x="333.6732" y="-15.4" font-family="sans-serif" font-size="14.00" fill="#000000"> &#160;Providers</text>
<polygon fill="#fb8072" stroke="transparent" points="406,-10 406,-30 426,-30 426,-10 406,-10"/>
<text text-anchor="start" x="429.7258" y="-15.4" font-family="sans-serif" font-size="14.00" fill="#000000"> &#160;Exports</text>
<g id="clust1" class="cluster">
<title>cluster_SharedModule</title>
<polygon fill="none" stroke="#000000" stroke-dasharray="1,5" points="53,-70 53,-268 443,-268 443,-70 53,-70"/>
</g>
<g id="clust2" class="cluster">
<title>cluster_SharedModule_declarations</title>
<polygon fill="none" stroke="#000000" points="256,-78 256,-130 376,-130 376,-78 256,-78"/>
</g>
<g id="clust4" class="cluster">
<title>cluster_SharedModule_imports</title>
<polygon fill="none" stroke="#000000" points="120,-78 120,-130 248,-130 248,-78 120,-78"/>
</g>
<g id="clust5" class="cluster">
<title>cluster_SharedModule_exports</title>
<polygon fill="none" stroke="#000000" points="61,-208 61,-260 435,-260 435,-208 61,-208"/>
</g>
<!-- StarComponent -->
<g id="node1" class="node">
<title>StarComponent</title>
<polygon fill="#ffffb3" stroke="#000000" points="367.8809,-122 264.1191,-122 264.1191,-86 367.8809,-86 367.8809,-122"/>
<text text-anchor="middle" x="316" y="-99.8" font-family="Times,serif" font-size="14.00" fill="#000000">StarComponent</text>
</g>
<!-- SharedModule -->
<g id="node2" class="node">
<title>SharedModule</title>
<polygon fill="#8dd3c7" stroke="#000000" points="293.4231,-187 290.4231,-191 269.4231,-191 266.4231,-187 194.5769,-187 194.5769,-151 293.4231,-151 293.4231,-187"/>
<text text-anchor="middle" x="244" y="-164.8" font-family="Times,serif" font-size="14.00" fill="#000000">SharedModule</text>
</g>
<!-- StarComponent&#45;&gt;SharedModule -->
<g id="edge1" class="edge">
<title>StarComponent&#45;&gt;SharedModule</title>
<path fill="none" stroke="#000000" d="M278.6354,-122.1061C278.6354,-122.1061 278.6354,-140.991 278.6354,-140.991"/>
<polygon fill="#000000" stroke="#000000" points="275.1354,-140.9909 278.6354,-150.991 282.1354,-140.991 275.1354,-140.9909"/>
</g>
<!-- CommonModule  -->
<g id="node4" class="node">
<title>CommonModule </title>
<polygon fill="#fb8072" stroke="#000000" points="426.6677,-252 311.3323,-252 311.3323,-216 426.6677,-216 426.6677,-252"/>
<text text-anchor="middle" x="369" y="-229.8" font-family="Times,serif" font-size="14.00" fill="#000000">CommonModule </text>
</g>
<!-- SharedModule&#45;&gt;CommonModule  -->
<g id="edge3" class="edge">
<title>SharedModule&#45;&gt;CommonModule </title>
<path fill="none" stroke="#000000" stroke-dasharray="5,2" d="M293.2405,-169C316.684,-169 339.6783,-169 339.6783,-169 339.6783,-169 339.6783,-205.8939 339.6783,-205.8939"/>
<polygon fill="#000000" stroke="#000000" points="336.1784,-205.8938 339.6783,-215.8939 343.1784,-205.8939 336.1784,-205.8938"/>
</g>
<!-- FormsModule  -->
<g id="node5" class="node">
<title>FormsModule </title>
<polygon fill="#fb8072" stroke="#000000" points="293.3283,-252 194.6717,-252 194.6717,-216 293.3283,-216 293.3283,-252"/>
<text text-anchor="middle" x="244" y="-229.8" font-family="Times,serif" font-size="14.00" fill="#000000">FormsModule </text>
</g>
<!-- SharedModule&#45;&gt;FormsModule  -->
<g id="edge4" class="edge">
<title>SharedModule&#45;&gt;FormsModule </title>
<path fill="none" stroke="#000000" stroke-dasharray="5,2" d="M244,-187.1061C244,-187.1061 244,-205.991 244,-205.991"/>
<polygon fill="#000000" stroke="#000000" points="240.5001,-205.9909 244,-215.991 247.5001,-205.991 240.5001,-205.9909"/>
</g>
<!-- StarComponent  -->
<g id="node6" class="node">
<title>StarComponent </title>
<polygon fill="#fb8072" stroke="#000000" points="176.8815,-252 69.1185,-252 69.1185,-216 176.8815,-216 176.8815,-252"/>
<text text-anchor="middle" x="123" y="-229.8" font-family="Times,serif" font-size="14.00" fill="#000000">StarComponent </text>
</g>
<!-- SharedModule&#45;&gt;StarComponent  -->
<g id="edge5" class="edge">
<title>SharedModule&#45;&gt;StarComponent </title>
<path fill="none" stroke="#000000" stroke-dasharray="5,2" d="M194.7296,-169C173.0552,-169 152.4283,-169 152.4283,-169 152.4283,-169 152.4283,-205.8939 152.4283,-205.8939"/>
<polygon fill="#000000" stroke="#000000" points="148.9284,-205.8938 152.4283,-215.8939 155.9284,-205.8939 148.9284,-205.8938"/>
</g>
<!-- CommonModule -->
<g id="node3" class="node">
<title>CommonModule</title>
<polygon fill="#8dd3c7" stroke="#000000" points="239.6681,-122 236.6681,-126 215.6681,-126 212.6681,-122 128.3319,-122 128.3319,-86 239.6681,-86 239.6681,-122"/>
<text text-anchor="middle" x="184" y="-99.8" font-family="Times,serif" font-size="14.00" fill="#000000">CommonModule</text>
</g>
<!-- CommonModule&#45;&gt;SharedModule -->
<g id="edge2" class="edge">
<title>CommonModule&#45;&gt;SharedModule</title>
<path fill="none" stroke="#000000" d="M217.3114,-122.1061C217.3114,-122.1061 217.3114,-140.991 217.3114,-140.991"/>
<polygon fill="#000000" stroke="#000000" points="213.8114,-140.9909 217.3114,-150.991 220.8114,-140.991 213.8114,-140.9909"/>
</g>
</g>
</svg>
