<?xml version="1.0" encoding="UTF-8" standalone="no"?>
<!DOCTYPE svg PUBLIC "-//W3C//DTD SVG 1.1//EN"
 "http://www.w3.org/Graphics/SVG/1.1/DTD/svg11.dtd">
<!-- Generated by graphviz version 2.40.1 (20161225.0304)
 -->
<!-- Title: dependencies Pages: 1 -->
<svg width="1372pt" height="284pt"
 viewBox="0.00 0.00 1372.00 284.00" xmlns="http://www.w3.org/2000/svg" xmlns:xlink="http://www.w3.org/1999/xlink">
<g id="graph0" class="graph" transform="scale(1 1) rotate(0) translate(4 280)">
<title>dependencies</title>
<polygon fill="#ffffff" stroke="transparent" points="-4,4 -4,-280 1368,-280 1368,4 -4,4"/>
<text text-anchor="start" x="661.0091" y="-42.4" font-family="sans-serif" font-weight="bold" font-size="14.00" fill="#000000">Legend</text>
<polygon fill="#ffffb3" stroke="transparent" points="448,-10 448,-30 468,-30 468,-10 448,-10"/>
<text text-anchor="start" x="471.629" y="-15.4" font-family="sans-serif" font-size="14.00" fill="#000000"> &#160;Declarations</text>
<polygon fill="#8dd3c7" stroke="transparent" points="561,-10 561,-30 581,-30 581,-10 561,-10"/>
<text text-anchor="start" x="584.7251" y="-15.4" font-family="sans-serif" font-size="14.00" fill="#000000"> &#160;Module</text>
<polygon fill="#80b1d3" stroke="transparent" points="647,-10 647,-30 667,-30 667,-10 647,-10"/>
<text text-anchor="start" x="670.7812" y="-15.4" font-family="sans-serif" font-size="14.00" fill="#000000"> &#160;Bootstrap</text>
<polygon fill="#fdb462" stroke="transparent" points="744,-10 744,-30 764,-30 764,-10 744,-10"/>
<text text-anchor="start" x="767.6732" y="-15.4" font-family="sans-serif" font-size="14.00" fill="#000000"> &#160;Providers</text>
<polygon fill="#fb8072" stroke="transparent" points="840,-10 840,-30 860,-30 860,-10 840,-10"/>
<text text-anchor="start" x="863.7258" y="-15.4" font-family="sans-serif" font-size="14.00" fill="#000000"> &#160;Exports</text>
<g id="clust1" class="cluster">
<title>cluster_AppModule</title>
<polygon fill="none" stroke="#000000" stroke-dasharray="1,5" points="8,-70 8,-268 1356,-268 1356,-70 8,-70"/>
</g>
<g id="clust2" class="cluster">
<title>cluster_AppModule_declarations</title>
<polygon fill="none" stroke="#000000" points="890,-78 890,-130 1348,-130 1348,-78 890,-78"/>
</g>
<g id="clust6" class="cluster">
<title>cluster_AppModule_imports</title>
<polygon fill="none" stroke="#000000" points="16,-78 16,-130 882,-130 882,-78 16,-78"/>
</g>
<g id="clust8" class="cluster">
<title>cluster_AppModule_bootstrap</title>
<polygon fill="none" stroke="#000000" points="645,-208 645,-260 769,-260 769,-208 645,-208"/>
</g>
<!-- AppComponent -->
<g id="node1" class="node">
<title>AppComponent</title>
<polygon fill="#ffffb3" stroke="#000000" points="1339.9399,-122 1234.0601,-122 1234.0601,-86 1339.9399,-86 1339.9399,-122"/>
<text text-anchor="middle" x="1287" y="-99.8" font-family="Times,serif" font-size="14.00" fill="#000000">AppComponent</text>
</g>
<!-- AppModule -->
<g id="node4" class="node">
<title>AppModule</title>
<polygon fill="#8dd3c7" stroke="#000000" points="748.6571,-187 745.6571,-191 724.6571,-191 721.6571,-187 665.3429,-187 665.3429,-151 748.6571,-151 748.6571,-187"/>
<text text-anchor="middle" x="707" y="-164.8" font-family="Times,serif" font-size="14.00" fill="#000000">AppModule</text>
</g>
<!-- AppComponent&#45;&gt;AppModule -->
<g id="edge1" class="edge">
<title>AppComponent&#45;&gt;AppModule</title>
<path fill="none" stroke="#000000" d="M1287,-122.0109C1287,-144.4852 1287,-180 1287,-180 1287,-180 758.7122,-180 758.7122,-180"/>
<polygon fill="#000000" stroke="#000000" points="758.7122,-176.5001 748.7122,-180 758.7121,-183.5001 758.7122,-176.5001"/>
</g>
<!-- WelcomeComponent -->
<g id="node2" class="node">
<title>WelcomeComponent</title>
<polygon fill="#ffffb3" stroke="#000000" points="1216.472,-122 1081.528,-122 1081.528,-86 1216.472,-86 1216.472,-122"/>
<text text-anchor="middle" x="1149" y="-99.8" font-family="Times,serif" font-size="14.00" fill="#000000">WelcomeComponent</text>
</g>
<!-- WelcomeComponent&#45;&gt;AppModule -->
<g id="edge2" class="edge">
<title>WelcomeComponent&#45;&gt;AppModule</title>
<path fill="none" stroke="#000000" d="M1149,-122.1289C1149,-142.5724 1149,-173 1149,-173 1149,-173 758.9808,-173 758.9808,-173"/>
<polygon fill="#000000" stroke="#000000" points="758.9808,-169.5001 748.9808,-173 758.9807,-176.5001 758.9808,-169.5001"/>
</g>
<!-- PageNotFoundComponent -->
<g id="node3" class="node">
<title>PageNotFoundComponent</title>
<polygon fill="#ffffb3" stroke="#000000" points="1063.8243,-122 898.1757,-122 898.1757,-86 1063.8243,-86 1063.8243,-122"/>
<text text-anchor="middle" x="981" y="-99.8" font-family="Times,serif" font-size="14.00" fill="#000000">PageNotFoundComponent</text>
</g>
<!-- PageNotFoundComponent&#45;&gt;AppModule -->
<g id="edge3" class="edge">
<title>PageNotFoundComponent&#45;&gt;AppModule</title>
<path fill="none" stroke="#000000" d="M981,-122.2667C981,-140.5552 981,-166 981,-166 981,-166 758.913,-166 758.913,-166"/>
<polygon fill="#000000" stroke="#000000" points="758.913,-162.5001 748.913,-166 758.9129,-169.5001 758.913,-162.5001"/>
</g>
<!-- AppComponent  -->
<g id="node11" class="node">
<title>AppComponent </title>
<polygon fill="#80b1d3" stroke="#000000" points="761.439,-252 652.561,-252 652.561,-216 761.439,-216 761.439,-252"/>
<text text-anchor="middle" x="707" y="-229.8" font-family="Times,serif" font-size="14.00" fill="#000000">AppComponent </text>
</g>
<!-- AppModule&#45;&gt;AppComponent  -->
<g id="edge10" class="edge">
<title>AppModule&#45;&gt;AppComponent </title>
<path fill="none" stroke="#000000" stroke-dasharray="1,5" d="M707,-187.1061C707,-187.1061 707,-205.991 707,-205.991"/>
<polygon fill="#000000" stroke="#000000" points="703.5001,-205.9909 707,-215.991 710.5001,-205.991 703.5001,-205.9909"/>
</g>
<!-- BrowserModule -->
<g id="node5" class="node">
<title>BrowserModule</title>
<polygon fill="#8dd3c7" stroke="#000000" points="874.4734,-122 871.4734,-126 850.4734,-126 847.4734,-122 767.5266,-122 767.5266,-86 874.4734,-86 874.4734,-122"/>
<text text-anchor="middle" x="821" y="-99.8" font-family="Times,serif" font-size="14.00" fill="#000000">BrowserModule</text>
</g>
<!-- BrowserModule&#45;&gt;AppModule -->
<g id="edge4" class="edge">
<title>BrowserModule&#45;&gt;AppModule</title>
<path fill="none" stroke="#000000" d="M821,-122.0091C821,-138.0494 821,-159 821,-159 821,-159 758.8021,-159 758.8021,-159"/>
<polygon fill="#000000" stroke="#000000" points="758.8021,-155.5001 748.8021,-159 758.802,-162.5001 758.8021,-155.5001"/>
</g>
<!-- HttpModule -->
<g id="node6" class="node">
<title>HttpModule</title>
<polygon fill="#8dd3c7" stroke="#000000" points="749.4387,-122 746.4387,-126 725.4387,-126 722.4387,-122 664.5613,-122 664.5613,-86 749.4387,-86 749.4387,-122"/>
<text text-anchor="middle" x="707" y="-99.8" font-family="Times,serif" font-size="14.00" fill="#000000">HttpModule</text>
</g>
<!-- HttpModule&#45;&gt;AppModule -->
<g id="edge5" class="edge">
<title>HttpModule&#45;&gt;AppModule</title>
<path fill="none" stroke="#000000" d="M707,-122.1061C707,-122.1061 707,-140.991 707,-140.991"/>
<polygon fill="#000000" stroke="#000000" points="703.5001,-140.9909 707,-150.991 710.5001,-140.991 703.5001,-140.9909"/>
</g>
<!-- InMemoryWebApiModule.forRoot(args) -->
<g id="node7" class="node">
<title>InMemoryWebApiModule.forRoot(args)</title>
<polygon fill="#8dd3c7" stroke="#000000" points="647.037,-122 644.037,-126 623.037,-126 620.037,-122 400.963,-122 400.963,-86 647.037,-86 647.037,-122"/>
<text text-anchor="middle" x="524" y="-99.8" font-family="Times,serif" font-size="14.00" fill="#000000">InMemoryWebApiModule.forRoot(args)</text>
</g>
<!-- InMemoryWebApiModule.forRoot(args)&#45;&gt;AppModule -->
<g id="edge6" class="edge">
<title>InMemoryWebApiModule.forRoot(args)&#45;&gt;AppModule</title>
<path fill="none" stroke="#000000" d="M524,-122.0091C524,-138.0494 524,-159 524,-159 524,-159 655.0161,-159 655.0161,-159"/>
<polygon fill="#000000" stroke="#000000" points="655.0161,-162.5001 665.0161,-159 655.0161,-155.5001 655.0161,-162.5001"/>
</g>
<!-- UserModule -->
<g id="node8" class="node">
<title>UserModule</title>
<polygon fill="#8dd3c7" stroke="#000000" points="382.9762,-122 379.9762,-126 358.9762,-126 355.9762,-122 297.0238,-122 297.0238,-86 382.9762,-86 382.9762,-122"/>
<text text-anchor="middle" x="340" y="-99.8" font-family="Times,serif" font-size="14.00" fill="#000000">UserModule</text>
</g>
<!-- UserModule&#45;&gt;AppModule -->
<g id="edge7" class="edge">
<title>UserModule&#45;&gt;AppModule</title>
<path fill="none" stroke="#000000" d="M340,-122.2667C340,-140.5552 340,-166 340,-166 340,-166 655.2577,-166 655.2577,-166"/>
<polygon fill="#000000" stroke="#000000" points="655.2578,-169.5001 665.2577,-166 655.2577,-162.5001 655.2578,-169.5001"/>
</g>
<!-- MessageModule -->
<g id="node9" class="node">
<title>MessageModule</title>
<polygon fill="#8dd3c7" stroke="#000000" points="279.0284,-122 276.0284,-126 255.0284,-126 252.0284,-122 170.9716,-122 170.9716,-86 279.0284,-86 279.0284,-122"/>
<text text-anchor="middle" x="225" y="-99.8" font-family="Times,serif" font-size="14.00" fill="#000000">MessageModule</text>
</g>
<!-- MessageModule&#45;&gt;AppModule -->
<g id="edge8" class="edge">
<title>MessageModule&#45;&gt;AppModule</title>
<path fill="none" stroke="#000000" d="M225,-122.1289C225,-142.5724 225,-173 225,-173 225,-173 655.0688,-173 655.0688,-173"/>
<polygon fill="#000000" stroke="#000000" points="655.0689,-176.5001 665.0688,-173 655.0688,-169.5001 655.0689,-176.5001"/>
</g>
<!-- AppRoutingModule -->
<g id="node10" class="node">
<title>AppRoutingModule</title>
<polygon fill="#8dd3c7" stroke="#000000" points="152.2744,-122 149.2744,-126 128.2744,-126 125.2744,-122 23.7256,-122 23.7256,-86 152.2744,-86 152.2744,-122"/>
<text text-anchor="middle" x="88" y="-99.8" font-family="Times,serif" font-size="14.00" fill="#000000">AppRoutingModule</text>
</g>
<!-- AppRoutingModule&#45;&gt;AppModule -->
<g id="edge9" class="edge">
<title>AppRoutingModule&#45;&gt;AppModule</title>
<path fill="none" stroke="#000000" d="M88,-122.0109C88,-144.4852 88,-180 88,-180 88,-180 654.9403,-180 654.9403,-180"/>
<polygon fill="#000000" stroke="#000000" points="654.9403,-183.5001 664.9403,-180 654.9402,-176.5001 654.9403,-183.5001"/>
</g>
</g>
</svg>
