<?xml version="1.0" encoding="UTF-8" standalone="no"?>
<!DOCTYPE svg PUBLIC "-//W3C//DTD SVG 1.1//EN"
 "http://www.w3.org/Graphics/SVG/1.1/DTD/svg11.dtd">
<!-- Generated by graphviz version 2.40.1 (20161225.0304)
 -->
<!-- Title: dependencies Pages: 1 -->
<svg width="504pt" height="284pt"
 viewBox="0.00 0.00 504.00 284.00" xmlns="http://www.w3.org/2000/svg" xmlns:xlink="http://www.w3.org/1999/xlink">
<g id="graph0" class="graph" transform="scale(1 1) rotate(0) translate(4 280)">
<title>dependencies</title>
<polygon fill="#ffffff" stroke="transparent" points="-4,4 -4,-280 500,-280 500,4 -4,4"/>
<text text-anchor="start" x="227.0091" y="-42.4" font-family="sans-serif" font-weight="bold" font-size="14.00" fill="#000000">Legend</text>
<polygon fill="#ffffb3" stroke="transparent" points="14,-10 14,-30 34,-30 34,-10 14,-10"/>
<text text-anchor="start" x="37.629" y="-15.4" font-family="sans-serif" font-size="14.00" fill="#000000"> &#160;Declarations</text>
<polygon fill="#8dd3c7" stroke="transparent" points="127,-10 127,-30 147,-30 147,-10 127,-10"/>
<text text-anchor="start" x="150.7251" y="-15.4" font-family="sans-serif" font-size="14.00" fill="#000000"> &#160;Module</text>
<polygon fill="#80b1d3" stroke="transparent" points="213,-10 213,-30 233,-30 233,-10 213,-10"/>
<text text-anchor="start" x="236.7812" y="-15.4" font-family="sans-serif" font-size="14.00" fill="#000000"> &#160;Bootstrap</text>
<polygon fill="#fdb462" stroke="transparent" points="310,-10 310,-30 330,-30 330,-10 310,-10"/>
<text text-anchor="start" x="333.6732" y="-15.4" font-family="sans-serif" font-size="14.00" fill="#000000"> &#160;Providers</text>
<polygon fill="#fb8072" stroke="transparent" points="406,-10 406,-30 426,-30 426,-10 406,-10"/>
<text text-anchor="start" x="429.7258" y="-15.4" font-family="sans-serif" font-size="14.00" fill="#000000"> &#160;Exports</text>
<g id="clust1" class="cluster">
<title>cluster_AppRoutingModule</title>
<polygon fill="none" stroke="#000000" stroke-dasharray="1,5" points="52,-70 52,-268 444,-268 444,-70 52,-70"/>
</g>
<g id="clust3" class="cluster">
<title>cluster_AppRoutingModule_imports</title>
<polygon fill="none" stroke="#000000" points="242,-78 242,-130 436,-130 436,-78 242,-78"/>
</g>
<g id="clust4" class="cluster">
<title>cluster_AppRoutingModule_exports</title>
<polygon fill="none" stroke="#000000" points="184,-208 184,-260 302,-260 302,-208 184,-208"/>
</g>
<g id="clust6" class="cluster">
<title>cluster_AppRoutingModule_providers</title>
<polygon fill="none" stroke="#000000" points="60,-78 60,-130 234,-130 234,-78 60,-78"/>
</g>
<!-- RouterModule.forRoot(args) -->
<g id="node1" class="node">
<title>RouterModule.forRoot(args)</title>
<polygon fill="#8dd3c7" stroke="#000000" points="427.8419,-122 424.8419,-126 403.8419,-126 400.8419,-122 250.1581,-122 250.1581,-86 427.8419,-86 427.8419,-122"/>
<text text-anchor="middle" x="339" y="-99.8" font-family="Times,serif" font-size="14.00" fill="#000000">RouterModule.forRoot(args)</text>
</g>
<!-- AppRoutingModule -->
<g id="node2" class="node">
<title>AppRoutingModule</title>
<polygon fill="#8dd3c7" stroke="#000000" points="307.2744,-187 304.2744,-191 283.2744,-191 280.2744,-187 178.7256,-187 178.7256,-151 307.2744,-151 307.2744,-187"/>
<text text-anchor="middle" x="243" y="-164.8" font-family="Times,serif" font-size="14.00" fill="#000000">AppRoutingModule</text>
</g>
<!-- RouterModule.forRoot(args)&#45;&gt;AppRoutingModule -->
<g id="edge1" class="edge">
<title>RouterModule.forRoot(args)&#45;&gt;AppRoutingModule</title>
<path fill="none" stroke="#000000" d="M278.8581,-122.1061C278.8581,-122.1061 278.8581,-140.991 278.8581,-140.991"/>
<polygon fill="#000000" stroke="#000000" points="275.3582,-140.9909 278.8581,-150.991 282.3582,-140.991 275.3582,-140.9909"/>
</g>
<!-- RouterModule  -->
<g id="node3" class="node">
<title>RouterModule </title>
<polygon fill="#fb8072" stroke="#000000" points="293.6523,-252 192.3477,-252 192.3477,-216 293.6523,-216 293.6523,-252"/>
<text text-anchor="middle" x="243" y="-229.8" font-family="Times,serif" font-size="14.00" fill="#000000">RouterModule </text>
</g>
<!-- AppRoutingModule&#45;&gt;RouterModule  -->
<g id="edge2" class="edge">
<title>AppRoutingModule&#45;&gt;RouterModule </title>
<path fill="none" stroke="#000000" stroke-dasharray="5,2" d="M243,-187.1061C243,-187.1061 243,-205.991 243,-205.991"/>
<polygon fill="#000000" stroke="#000000" points="239.5001,-205.9909 243,-215.991 246.5001,-205.991 239.5001,-205.9909"/>
</g>
<!-- SelectiveStrategy -->
<g id="node4" class="node">
<title>SelectiveStrategy</title>
<ellipse fill="#fdb462" stroke="#000000" cx="147" cy="-104" rx="78.724" ry="18"/>
<text text-anchor="middle" x="147" y="-99.8" font-family="Times,serif" font-size="14.00" fill="#000000">SelectiveStrategy</text>
</g>
<!-- SelectiveStrategy&#45;&gt;AppRoutingModule -->
<g id="edge3" class="edge">
<title>SelectiveStrategy&#45;&gt;AppRoutingModule</title>
<path fill="none" stroke="#000000" d="M202.1124,-116.8419C202.1124,-116.8419 202.1124,-140.5231 202.1124,-140.5231"/>
<polygon fill="#000000" stroke="#000000" points="198.6125,-140.523 202.1124,-150.5231 205.6125,-140.5231 198.6125,-140.523"/>
</g>
</g>
</svg>
