<?xml version="1.0" encoding="UTF-8" standalone="no"?>
<!DOCTYPE svg PUBLIC "-//W3C//DTD SVG 1.1//EN"
 "http://www.w3.org/Graphics/SVG/1.1/DTD/svg11.dtd">
<!-- Generated by graphviz version 2.40.1 (20161225.0304)
 -->
<!-- Title: dependencies Pages: 1 -->
<svg width="680pt" height="211pt"
 viewBox="0.00 0.00 680.00 211.00" xmlns="http://www.w3.org/2000/svg" xmlns:xlink="http://www.w3.org/1999/xlink">
<g id="graph0" class="graph" transform="scale(1 1) rotate(0) translate(4 207)">
<title>dependencies</title>
<polygon fill="#ffffff" stroke="transparent" points="-4,4 -4,-207 676,-207 676,4 -4,4"/>
<text text-anchor="start" x="315.0091" y="-42.4" font-family="sans-serif" font-weight="bold" font-size="14.00" fill="#000000">Legend</text>
<polygon fill="#ffffb3" stroke="transparent" points="102,-10 102,-30 122,-30 122,-10 102,-10"/>
<text text-anchor="start" x="125.629" y="-15.4" font-family="sans-serif" font-size="14.00" fill="#000000"> &#160;Declarations</text>
<polygon fill="#8dd3c7" stroke="transparent" points="215,-10 215,-30 235,-30 235,-10 215,-10"/>
<text text-anchor="start" x="238.7251" y="-15.4" font-family="sans-serif" font-size="14.00" fill="#000000"> &#160;Module</text>
<polygon fill="#80b1d3" stroke="transparent" points="301,-10 301,-30 321,-30 321,-10 301,-10"/>
<text text-anchor="start" x="324.7812" y="-15.4" font-family="sans-serif" font-size="14.00" fill="#000000"> &#160;Bootstrap</text>
<polygon fill="#fdb462" stroke="transparent" points="398,-10 398,-30 418,-30 418,-10 398,-10"/>
<text text-anchor="start" x="421.6732" y="-15.4" font-family="sans-serif" font-size="14.00" fill="#000000"> &#160;Providers</text>
<polygon fill="#fb8072" stroke="transparent" points="494,-10 494,-30 514,-30 514,-10 494,-10"/>
<text text-anchor="start" x="517.7258" y="-15.4" font-family="sans-serif" font-size="14.00" fill="#000000"> &#160;Exports</text>
<g id="clust1" class="cluster">
<title>cluster_MessageModule</title>
<polygon fill="none" stroke="#000000" stroke-dasharray="1,5" points="8,-70 8,-195 664,-195 664,-70 8,-70"/>
</g>
<g id="clust2" class="cluster">
<title>cluster_MessageModule_declarations</title>
<polygon fill="none" stroke="#000000" points="510,-78 510,-130 656,-130 656,-78 510,-78"/>
</g>
<g id="clust4" class="cluster">
<title>cluster_MessageModule_imports</title>
<polygon fill="none" stroke="#000000" points="188,-78 188,-130 502,-130 502,-78 188,-78"/>
</g>
<g id="clust7" class="cluster">
<title>cluster_MessageModule_providers</title>
<polygon fill="none" stroke="#000000" points="16,-78 16,-130 180,-130 180,-78 16,-78"/>
</g>
<!-- MessageComponent -->
<g id="node1" class="node">
<title>MessageComponent</title>
<polygon fill="#ffffb3" stroke="#000000" points="648.3104,-122 517.6896,-122 517.6896,-86 648.3104,-86 648.3104,-122"/>
<text text-anchor="middle" x="583" y="-99.8" font-family="Times,serif" font-size="14.00" fill="#000000">MessageComponent</text>
</g>
<!-- MessageModule -->
<g id="node2" class="node">
<title>MessageModule</title>
<polygon fill="#8dd3c7" stroke="#000000" points="420.0284,-187 417.0284,-191 396.0284,-191 393.0284,-187 311.9716,-187 311.9716,-151 420.0284,-151 420.0284,-187"/>
<text text-anchor="middle" x="366" y="-164.8" font-family="Times,serif" font-size="14.00" fill="#000000">MessageModule</text>
</g>
<!-- MessageComponent&#45;&gt;MessageModule -->
<g id="edge1" class="edge">
<title>MessageComponent&#45;&gt;MessageModule</title>
<path fill="none" stroke="#000000" d="M583,-122.1061C583,-141.3391 583,-169 583,-169 583,-169 430.1985,-169 430.1985,-169"/>
<polygon fill="#000000" stroke="#000000" points="430.1985,-165.5001 420.1985,-169 430.1985,-172.5001 430.1985,-165.5001"/>
</g>
<!-- SharedModule -->
<g id="node3" class="node">
<title>SharedModule</title>
<polygon fill="#8dd3c7" stroke="#000000" points="494.4231,-122 491.4231,-126 470.4231,-126 467.4231,-122 395.5769,-122 395.5769,-86 494.4231,-86 494.4231,-122"/>
<text text-anchor="middle" x="445" y="-99.8" font-family="Times,serif" font-size="14.00" fill="#000000">SharedModule</text>
</g>
<!-- SharedModule&#45;&gt;MessageModule -->
<g id="edge2" class="edge">
<title>SharedModule&#45;&gt;MessageModule</title>
<path fill="none" stroke="#000000" d="M408.0263,-122.1061C408.0263,-122.1061 408.0263,-140.991 408.0263,-140.991"/>
<polygon fill="#000000" stroke="#000000" points="404.5264,-140.9909 408.0263,-150.991 411.5264,-140.991 404.5264,-140.9909"/>
</g>
<!-- RouterModule.forChild(args) -->
<g id="node4" class="node">
<title>RouterModule.forChild(args)</title>
<polygon fill="#8dd3c7" stroke="#000000" points="377.7323,-122 374.7323,-126 353.7323,-126 350.7323,-122 196.2677,-122 196.2677,-86 377.7323,-86 377.7323,-122"/>
<text text-anchor="middle" x="287" y="-99.8" font-family="Times,serif" font-size="14.00" fill="#000000">RouterModule.forChild(args)</text>
</g>
<!-- RouterModule.forChild(args)&#45;&gt;MessageModule -->
<g id="edge3" class="edge">
<title>RouterModule.forChild(args)&#45;&gt;MessageModule</title>
<path fill="none" stroke="#000000" d="M344.6762,-122.1061C344.6762,-122.1061 344.6762,-140.991 344.6762,-140.991"/>
<polygon fill="#000000" stroke="#000000" points="341.1763,-140.9909 344.6762,-150.991 348.1763,-140.991 341.1763,-140.9909"/>
</g>
<!-- MessageService -->
<g id="node5" class="node">
<title>MessageService</title>
<ellipse fill="#fdb462" stroke="#000000" cx="98" cy="-104" rx="73.5522" ry="18"/>
<text text-anchor="middle" x="98" y="-99.8" font-family="Times,serif" font-size="14.00" fill="#000000">MessageService</text>
</g>
<!-- MessageService&#45;&gt;MessageModule -->
<g id="edge4" class="edge">
<title>MessageService&#45;&gt;MessageModule</title>
<path fill="none" stroke="#000000" d="M98,-122.1061C98,-141.3391 98,-169 98,-169 98,-169 301.7662,-169 301.7662,-169"/>
<polygon fill="#000000" stroke="#000000" points="301.7662,-172.5001 311.7662,-169 301.7662,-165.5001 301.7662,-172.5001"/>
</g>
</g>
</svg>
