<?xml version="1.0" encoding="UTF-8" standalone="no"?>
<!DOCTYPE svg PUBLIC "-//W3C//DTD SVG 1.1//EN"
 "http://www.w3.org/Graphics/SVG/1.1/DTD/svg11.dtd">
<!-- Generated by graphviz version 2.40.1 (20161225.0304)
 -->
<!-- Title: dependencies Pages: 1 -->
<svg width="2072pt" height="211pt"
 viewBox="0.00 0.00 2072.00 211.00" xmlns="http://www.w3.org/2000/svg" xmlns:xlink="http://www.w3.org/1999/xlink">
<g id="graph0" class="graph" transform="scale(1 1) rotate(0) translate(4 207)">
<title>dependencies</title>
<polygon fill="#ffffff" stroke="transparent" points="-4,4 -4,-207 2068,-207 2068,4 -4,4"/>
<text text-anchor="start" x="1011.0091" y="-42.4" font-family="sans-serif" font-weight="bold" font-size="14.00" fill="#000000">Legend</text>
<polygon fill="#ffffb3" stroke="transparent" points="798,-10 798,-30 818,-30 818,-10 798,-10"/>
<text text-anchor="start" x="821.629" y="-15.4" font-family="sans-serif" font-size="14.00" fill="#000000"> &#160;Declarations</text>
<polygon fill="#8dd3c7" stroke="transparent" points="911,-10 911,-30 931,-30 931,-10 911,-10"/>
<text text-anchor="start" x="934.7251" y="-15.4" font-family="sans-serif" font-size="14.00" fill="#000000"> &#160;Module</text>
<polygon fill="#80b1d3" stroke="transparent" points="997,-10 997,-30 1017,-30 1017,-10 997,-10"/>
<text text-anchor="start" x="1020.7812" y="-15.4" font-family="sans-serif" font-size="14.00" fill="#000000"> &#160;Bootstrap</text>
<polygon fill="#fdb462" stroke="transparent" points="1094,-10 1094,-30 1114,-30 1114,-10 1094,-10"/>
<text text-anchor="start" x="1117.6732" y="-15.4" font-family="sans-serif" font-size="14.00" fill="#000000"> &#160;Providers</text>
<polygon fill="#fb8072" stroke="transparent" points="1190,-10 1190,-30 1210,-30 1210,-10 1190,-10"/>
<text text-anchor="start" x="1213.7258" y="-15.4" font-family="sans-serif" font-size="14.00" fill="#000000"> &#160;Exports</text>
<g id="clust1" class="cluster">
<title>cluster_ProductModule</title>
<polygon fill="none" stroke="#000000" stroke-dasharray="1,5" points="8,-70 8,-195 2056,-195 2056,-70 8,-70"/>
</g>
<g id="clust2" class="cluster">
<title>cluster_ProductModule_declarations</title>
<polygon fill="none" stroke="#000000" points="1027,-78 1027,-130 2048,-130 2048,-78 1027,-78"/>
</g>
<g id="clust9" class="cluster">
<title>cluster_ProductModule_imports</title>
<polygon fill="none" stroke="#000000" points="705,-78 705,-130 1019,-130 1019,-78 705,-78"/>
</g>
<g id="clust12" class="cluster">
<title>cluster_ProductModule_providers</title>
<polygon fill="none" stroke="#000000" points="16,-78 16,-130 697,-130 697,-78 16,-78"/>
</g>
<!-- ProductListComponent -->
<g id="node1" class="node">
<title>ProductListComponent</title>
<polygon fill="#ffffb3" stroke="#000000" points="2040.1596,-122 1893.8404,-122 1893.8404,-86 2040.1596,-86 2040.1596,-122"/>
<text text-anchor="middle" x="1967" y="-99.8" font-family="Times,serif" font-size="14.00" fill="#000000">ProductListComponent</text>
</g>
<!-- ProductModule -->
<g id="node7" class="node">
<title>ProductModule</title>
<polygon fill="#8dd3c7" stroke="#000000" points="1078.5982,-187 1075.5982,-191 1054.5982,-191 1051.5982,-187 975.4018,-187 975.4018,-151 1078.5982,-151 1078.5982,-187"/>
<text text-anchor="middle" x="1027" y="-164.8" font-family="Times,serif" font-size="14.00" fill="#000000">ProductModule</text>
</g>
<!-- ProductListComponent&#45;&gt;ProductModule -->
<g id="edge1" class="edge">
<title>ProductListComponent&#45;&gt;ProductModule</title>
<path fill="none" stroke="#000000" d="M1967,-122.0908C1967,-145.1328 1967,-182 1967,-182 1967,-182 1088.8774,-182 1088.8774,-182"/>
<polygon fill="#000000" stroke="#000000" points="1088.8775,-178.5001 1078.8774,-182 1088.8774,-185.5001 1088.8775,-178.5001"/>
</g>
<!-- ProductDetailComponent -->
<g id="node2" class="node">
<title>ProductDetailComponent</title>
<polygon fill="#ffffb3" stroke="#000000" points="1875.5884,-122 1716.4116,-122 1716.4116,-86 1875.5884,-86 1875.5884,-122"/>
<text text-anchor="middle" x="1796" y="-99.8" font-family="Times,serif" font-size="14.00" fill="#000000">ProductDetailComponent</text>
</g>
<!-- ProductDetailComponent&#45;&gt;ProductModule -->
<g id="edge2" class="edge">
<title>ProductDetailComponent&#45;&gt;ProductModule</title>
<path fill="none" stroke="#000000" d="M1796,-122.2843C1796,-143.3211 1796,-175 1796,-175 1796,-175 1088.6503,-175 1088.6503,-175"/>
<polygon fill="#000000" stroke="#000000" points="1088.6504,-171.5001 1078.6503,-175 1088.6503,-178.5001 1088.6504,-171.5001"/>
</g>
<!-- ProductEditComponent -->
<g id="node3" class="node">
<title>ProductEditComponent</title>
<polygon fill="#ffffb3" stroke="#000000" points="1698.2148,-122 1549.7852,-122 1549.7852,-86 1698.2148,-86 1698.2148,-122"/>
<text text-anchor="middle" x="1624" y="-99.8" font-family="Times,serif" font-size="14.00" fill="#000000">ProductEditComponent</text>
</g>
<!-- ProductEditComponent&#45;&gt;ProductModule -->
<g id="edge3" class="edge">
<title>ProductEditComponent&#45;&gt;ProductModule</title>
<path fill="none" stroke="#000000" d="M1624,-122.1061C1624,-141.3391 1624,-169 1624,-169 1624,-169 1088.6758,-169 1088.6758,-169"/>
<polygon fill="#000000" stroke="#000000" points="1088.6758,-165.5001 1078.6758,-169 1088.6757,-172.5001 1088.6758,-165.5001"/>
</g>
<!-- ProductEditInfoComponent -->
<g id="node4" class="node">
<title>ProductEditInfoComponent</title>
<polygon fill="#ffffb3" stroke="#000000" points="1531.5364,-122 1360.4636,-122 1360.4636,-86 1531.5364,-86 1531.5364,-122"/>
<text text-anchor="middle" x="1446" y="-99.8" font-family="Times,serif" font-size="14.00" fill="#000000">ProductEditInfoComponent</text>
</g>
<!-- ProductEditInfoComponent&#45;&gt;ProductModule -->
<g id="edge4" class="edge">
<title>ProductEditInfoComponent&#45;&gt;ProductModule</title>
<path fill="none" stroke="#000000" d="M1446,-122.0225C1446,-139.3734 1446,-163 1446,-163 1446,-163 1088.7979,-163 1088.7979,-163"/>
<polygon fill="#000000" stroke="#000000" points="1088.7979,-159.5001 1078.7979,-163 1088.7978,-166.5001 1088.7979,-159.5001"/>
</g>
<!-- ProductEditTagsComponent -->
<g id="node5" class="node">
<title>ProductEditTagsComponent</title>
<polygon fill="#ffffb3" stroke="#000000" points="1342.9269,-122 1167.0731,-122 1167.0731,-86 1342.9269,-86 1342.9269,-122"/>
<text text-anchor="middle" x="1255" y="-99.8" font-family="Times,serif" font-size="14.00" fill="#000000">ProductEditTagsComponent</text>
</g>
<!-- ProductEditTagsComponent&#45;&gt;ProductModule -->
<g id="edge5" class="edge">
<title>ProductEditTagsComponent&#45;&gt;ProductModule</title>
<path fill="none" stroke="#000000" d="M1255,-122.2396C1255,-137.5706 1255,-157 1255,-157 1255,-157 1088.7367,-157 1088.7367,-157"/>
<polygon fill="#000000" stroke="#000000" points="1088.7368,-153.5001 1078.7367,-157 1088.7367,-160.5001 1088.7368,-153.5001"/>
</g>
<!-- ProductFilterPipe -->
<g id="node6" class="node">
<title>ProductFilterPipe</title>
<polygon fill="#ffffb3" stroke="#000000" points="1149.266,-122 1034.734,-122 1034.734,-86 1149.266,-86 1149.266,-122"/>
<text text-anchor="middle" x="1092" y="-99.8" font-family="Times,serif" font-size="14.00" fill="#000000">ProductFilterPipe</text>
</g>
<!-- ProductFilterPipe&#45;&gt;ProductModule -->
<g id="edge6" class="edge">
<title>ProductFilterPipe&#45;&gt;ProductModule</title>
<path fill="none" stroke="#000000" d="M1056.5831,-122.1061C1056.5831,-122.1061 1056.5831,-140.991 1056.5831,-140.991"/>
<polygon fill="#000000" stroke="#000000" points="1053.0832,-140.9909 1056.5831,-150.991 1060.0832,-140.991 1053.0832,-140.9909"/>
</g>
<!-- SharedModule -->
<g id="node8" class="node">
<title>SharedModule</title>
<polygon fill="#8dd3c7" stroke="#000000" points="1011.4231,-122 1008.4231,-126 987.4231,-126 984.4231,-122 912.5769,-122 912.5769,-86 1011.4231,-86 1011.4231,-122"/>
<text text-anchor="middle" x="962" y="-99.8" font-family="Times,serif" font-size="14.00" fill="#000000">SharedModule</text>
</g>
<!-- SharedModule&#45;&gt;ProductModule -->
<g id="edge7" class="edge">
<title>SharedModule&#45;&gt;ProductModule</title>
<path fill="none" stroke="#000000" d="M993.331,-122.1061C993.331,-122.1061 993.331,-140.991 993.331,-140.991"/>
<polygon fill="#000000" stroke="#000000" points="989.8311,-140.9909 993.331,-150.991 996.8311,-140.991 989.8311,-140.9909"/>
</g>
<!-- RouterModule.forChild(args) -->
<g id="node9" class="node">
<title>RouterModule.forChild(args)</title>
<polygon fill="#8dd3c7" stroke="#000000" points="894.7323,-122 891.7323,-126 870.7323,-126 867.7323,-122 713.2677,-122 713.2677,-86 894.7323,-86 894.7323,-122"/>
<text text-anchor="middle" x="804" y="-99.8" font-family="Times,serif" font-size="14.00" fill="#000000">RouterModule.forChild(args)</text>
</g>
<!-- RouterModule.forChild(args)&#45;&gt;ProductModule -->
<g id="edge8" class="edge">
<title>RouterModule.forChild(args)&#45;&gt;ProductModule</title>
<path fill="none" stroke="#000000" d="M804,-122.2396C804,-137.5706 804,-157 804,-157 804,-157 965.2788,-157 965.2788,-157"/>
<polygon fill="#000000" stroke="#000000" points="965.2788,-160.5001 975.2788,-157 965.2788,-153.5001 965.2788,-160.5001"/>
</g>
<!-- ProductService -->
<g id="node10" class="node">
<title>ProductService</title>
<ellipse fill="#fdb462" stroke="#000000" cx="619" cy="-104" rx="70.0616" ry="18"/>
<text text-anchor="middle" x="619" y="-99.8" font-family="Times,serif" font-size="14.00" fill="#000000">ProductService</text>
</g>
<!-- ProductService&#45;&gt;ProductModule -->
<g id="edge9" class="edge">
<title>ProductService&#45;&gt;ProductModule</title>
<path fill="none" stroke="#000000" d="M619,-122.0225C619,-139.3734 619,-163 619,-163 619,-163 965.3265,-163 965.3265,-163"/>
<polygon fill="#000000" stroke="#000000" points="965.3266,-166.5001 975.3265,-163 965.3265,-159.5001 965.3266,-166.5001"/>
</g>
<!-- ProductResolver -->
<g id="node11" class="node">
<title>ProductResolver</title>
<ellipse fill="#fdb462" stroke="#000000" cx="456" cy="-104" rx="75.3002" ry="18"/>
<text text-anchor="middle" x="456" y="-99.8" font-family="Times,serif" font-size="14.00" fill="#000000">ProductResolver</text>
</g>
<!-- ProductResolver&#45;&gt;ProductModule -->
<g id="edge10" class="edge">
<title>ProductResolver&#45;&gt;ProductModule</title>
<path fill="none" stroke="#000000" d="M456,-122.1061C456,-141.3391 456,-169 456,-169 456,-169 965.3205,-169 965.3205,-169"/>
<polygon fill="#000000" stroke="#000000" points="965.3205,-172.5001 975.3205,-169 965.3204,-165.5001 965.3205,-172.5001"/>
</g>
<!-- ProductEditGuard -->
<g id="node12" class="node">
<title>ProductEditGuard</title>
<ellipse fill="#fdb462" stroke="#000000" cx="281" cy="-104" rx="81.1014" ry="18"/>
<text text-anchor="middle" x="281" y="-99.8" font-family="Times,serif" font-size="14.00" fill="#000000">ProductEditGuard</text>
</g>
<!-- ProductEditGuard&#45;&gt;ProductModule -->
<g id="edge11" class="edge">
<title>ProductEditGuard&#45;&gt;ProductModule</title>
<path fill="none" stroke="#000000" d="M281,-122.2843C281,-143.3211 281,-175 281,-175 281,-175 965.4301,-175 965.4301,-175"/>
<polygon fill="#000000" stroke="#000000" points="965.4301,-178.5001 975.4301,-175 965.43,-171.5001 965.4301,-178.5001"/>
</g>
<!-- ProductsResolver -->
<g id="node13" class="node">
<title>ProductsResolver</title>
<ellipse fill="#fdb462" stroke="#000000" cx="103" cy="-104" rx="79.3116" ry="18"/>
<text text-anchor="middle" x="103" y="-99.8" font-family="Times,serif" font-size="14.00" fill="#000000">ProductsResolver</text>
</g>
<!-- ProductsResolver&#45;&gt;ProductModule -->
<g id="edge12" class="edge">
<title>ProductsResolver&#45;&gt;ProductModule</title>
<path fill="none" stroke="#000000" d="M103,-122.0908C103,-145.1328 103,-182 103,-182 103,-182 965.3418,-182 965.3418,-182"/>
<polygon fill="#000000" stroke="#000000" points="965.3419,-185.5001 975.3418,-182 965.3418,-178.5001 965.3419,-185.5001"/>
</g>
</g>
</svg>
