<?xml version="1.0" encoding="UTF-8" standalone="no"?>
<!DOCTYPE svg PUBLIC "-//W3C//DTD SVG 1.1//EN"
 "http://www.w3.org/Graphics/SVG/1.1/DTD/svg11.dtd">
<!-- Generated by graphviz version 2.40.1 (20161225.0304)
 -->
<!-- Title: dependencies Pages: 1 -->
<svg width="1568pt" height="374pt"
 viewBox="0.00 0.00 1568.00 374.00" xmlns="http://www.w3.org/2000/svg" xmlns:xlink="http://www.w3.org/1999/xlink">
<g id="graph0" class="graph" transform="scale(1 1) rotate(0) translate(4 370)">
<title>dependencies</title>
<polygon fill="#ffffff" stroke="transparent" points="-4,4 -4,-370 1564,-370 1564,4 -4,4"/>
<text text-anchor="start" x="759.0091" y="-42.4" font-family="sans-serif" font-weight="bold" font-size="14.00" fill="#000000">Legend</text>
<polygon fill="#ffffb3" stroke="transparent" points="546,-10 546,-30 566,-30 566,-10 546,-10"/>
<text text-anchor="start" x="569.629" y="-15.4" font-family="sans-serif" font-size="14.00" fill="#000000"> &#160;Declarations</text>
<polygon fill="#8dd3c7" stroke="transparent" points="659,-10 659,-30 679,-30 679,-10 659,-10"/>
<text text-anchor="start" x="682.7251" y="-15.4" font-family="sans-serif" font-size="14.00" fill="#000000"> &#160;Module</text>
<polygon fill="#80b1d3" stroke="transparent" points="745,-10 745,-30 765,-30 765,-10 745,-10"/>
<text text-anchor="start" x="768.7812" y="-15.4" font-family="sans-serif" font-size="14.00" fill="#000000"> &#160;Bootstrap</text>
<polygon fill="#fdb462" stroke="transparent" points="842,-10 842,-30 862,-30 862,-10 842,-10"/>
<text text-anchor="start" x="865.6732" y="-15.4" font-family="sans-serif" font-size="14.00" fill="#000000"> &#160;Providers</text>
<polygon fill="#fb8072" stroke="transparent" points="938,-10 938,-30 958,-30 958,-10 938,-10"/>
<text text-anchor="start" x="961.7258" y="-15.4" font-family="sans-serif" font-size="14.00" fill="#000000"> &#160;Exports</text>
<g id="clust1" class="cluster">
<title>cluster_AppModule</title>
<polygon fill="none" stroke="#000000" stroke-dasharray="1,5" points="8,-146 8,-358 890,-358 890,-146 8,-146"/>
</g>
<g id="clust3" class="cluster">
<title>cluster_AppModule_imports</title>
<polygon fill="none" stroke="#000000" points="16,-154 16,-206 882,-206 882,-154 16,-154"/>
</g>
<g id="clust5" class="cluster">
<title>cluster_AppModule_bootstrap</title>
<polygon fill="none" stroke="#000000" points="439,-298 439,-350 563,-350 563,-298 439,-298"/>
</g>
<g id="clust7" class="cluster">
<title>cluster_AppRoutingModule</title>
<polygon fill="none" stroke="#000000" stroke-dasharray="1,5" points="898,-222 898,-290 1234,-290 1234,-222 898,-222"/>
</g>
<g id="clust9" class="cluster">
<title>cluster_AppRoutingModule_imports</title>
<polygon fill="none" stroke="#000000" points="1032,-230 1032,-282 1226,-282 1226,-230 1032,-230"/>
</g>
<g id="clust10" class="cluster">
<title>cluster_AppRoutingModule_exports</title>
<polygon fill="none" stroke="#000000" points="906,-230 906,-282 1024,-282 1024,-230 906,-230"/>
</g>
<g id="clust13" class="cluster">
<title>cluster_MessageModule</title>
<polygon fill="none" stroke="#000000" stroke-dasharray="1,5" points="762,-70 762,-138 1092,-138 1092,-70 762,-70"/>
</g>
<g id="clust15" class="cluster">
<title>cluster_MessageModule_imports</title>
<polygon fill="none" stroke="#000000" points="770,-78 770,-130 1084,-130 1084,-78 770,-78"/>
</g>
<g id="clust19" class="cluster">
<title>cluster_ProductModule</title>
<polygon fill="none" stroke="#000000" stroke-dasharray="1,5" points="898,-154 898,-206 1018,-206 1018,-154 898,-154"/>
</g>
<g id="clust25" class="cluster">
<title>cluster_SharedModule</title>
<polygon fill="none" stroke="#000000" stroke-dasharray="1,5" points="1026,-146 1026,-214 1552,-214 1552,-146 1026,-146"/>
</g>
<g id="clust27" class="cluster">
<title>cluster_SharedModule_imports</title>
<polygon fill="none" stroke="#000000" points="1416,-154 1416,-206 1544,-206 1544,-154 1416,-154"/>
</g>
<g id="clust28" class="cluster">
<title>cluster_SharedModule_exports</title>
<polygon fill="none" stroke="#000000" points="1034,-154 1034,-206 1408,-206 1408,-154 1034,-154"/>
</g>
<!-- BrowserModule -->
<g id="node1" class="node">
<title>BrowserModule</title>
<polygon fill="#8dd3c7" stroke="#000000" points="497.4734,-198 494.4734,-202 473.4734,-202 470.4734,-198 390.5266,-198 390.5266,-162 497.4734,-162 497.4734,-198"/>
<text text-anchor="middle" x="444" y="-175.8" font-family="Times,serif" font-size="14.00" fill="#000000">BrowserModule</text>
</g>
<!-- AppModule -->
<g id="node7" class="node">
<title>AppModule</title>
<polygon fill="#8dd3c7" stroke="#000000" points="542.6571,-274 539.6571,-278 518.6571,-278 515.6571,-274 459.3429,-274 459.3429,-238 542.6571,-238 542.6571,-274"/>
<text text-anchor="middle" x="501" y="-251.8" font-family="Times,serif" font-size="14.00" fill="#000000">AppModule</text>
</g>
<!-- BrowserModule&#45;&gt;AppModule -->
<g id="edge1" class="edge">
<title>BrowserModule&#45;&gt;AppModule</title>
<path fill="none" stroke="#000000" d="M478.3293,-198.0109C478.3293,-198.0109 478.3293,-227.855 478.3293,-227.855"/>
<polygon fill="#000000" stroke="#000000" points="474.8293,-227.8549 478.3293,-237.855 481.8293,-227.855 474.8293,-227.8549"/>
</g>
<!-- HttpModule -->
<g id="node2" class="node">
<title>HttpModule</title>
<polygon fill="#8dd3c7" stroke="#000000" points="372.4387,-198 369.4387,-202 348.4387,-202 345.4387,-198 287.5613,-198 287.5613,-162 372.4387,-162 372.4387,-198"/>
<text text-anchor="middle" x="330" y="-175.8" font-family="Times,serif" font-size="14.00" fill="#000000">HttpModule</text>
</g>
<!-- HttpModule&#45;&gt;AppModule -->
<g id="edge2" class="edge">
<title>HttpModule&#45;&gt;AppModule</title>
<path fill="none" stroke="#000000" d="M330,-198.0267C330,-218.7672 330,-250 330,-250 330,-250 449.1687,-250 449.1687,-250"/>
<polygon fill="#000000" stroke="#000000" points="449.1687,-253.5001 459.1687,-250 449.1687,-246.5001 449.1687,-253.5001"/>
</g>
<!-- InMemoryWebApiModule.forRoot(args) -->
<g id="node3" class="node">
<title>InMemoryWebApiModule.forRoot(args)</title>
<polygon fill="#8dd3c7" stroke="#000000" points="270.037,-198 267.037,-202 246.037,-202 243.037,-198 23.963,-198 23.963,-162 270.037,-162 270.037,-198"/>
<text text-anchor="middle" x="147" y="-175.8" font-family="Times,serif" font-size="14.00" fill="#000000">InMemoryWebApiModule.forRoot(args)</text>
</g>
<!-- InMemoryWebApiModule.forRoot(args)&#45;&gt;AppModule -->
<g id="edge3" class="edge">
<title>InMemoryWebApiModule.forRoot(args)&#45;&gt;AppModule</title>
<path fill="none" stroke="#000000" d="M147,-198.1985C147,-222.3563 147,-262 147,-262 147,-262 449.0014,-262 449.0014,-262"/>
<polygon fill="#000000" stroke="#000000" points="449.0015,-265.5001 459.0014,-262 449.0014,-258.5001 449.0015,-265.5001"/>
</g>
<!-- UserModule -->
<g id="node4" class="node">
<title>UserModule</title>
<polygon fill="#8dd3c7" stroke="#000000" points="600.9762,-198 597.9762,-202 576.9762,-202 573.9762,-198 515.0238,-198 515.0238,-162 600.9762,-162 600.9762,-198"/>
<text text-anchor="middle" x="558" y="-175.8" font-family="Times,serif" font-size="14.00" fill="#000000">UserModule</text>
</g>
<!-- UserModule&#45;&gt;AppModule -->
<g id="edge4" class="edge">
<title>UserModule&#45;&gt;AppModule</title>
<path fill="none" stroke="#000000" d="M528.92,-198.0109C528.92,-198.0109 528.92,-227.855 528.92,-227.855"/>
<polygon fill="#000000" stroke="#000000" points="525.4201,-227.8549 528.92,-237.855 532.4201,-227.855 525.4201,-227.8549"/>
</g>
<!-- MessageModule -->
<g id="node5" class="node">
<title>MessageModule</title>
<polygon fill="#8dd3c7" stroke="#000000" points="727.0284,-198 724.0284,-202 703.0284,-202 700.0284,-198 618.9716,-198 618.9716,-162 727.0284,-162 727.0284,-198"/>
<text text-anchor="middle" x="673" y="-175.8" font-family="Times,serif" font-size="14.00" fill="#000000">MessageModule</text>
</g>
<!-- MessageModule&#45;&gt;AppModule -->
<g id="edge5" class="edge">
<title>MessageModule&#45;&gt;AppModule</title>
<path fill="none" stroke="#000000" d="M673,-198.308C673,-218.1455 673,-247 673,-247 673,-247 553.0759,-247 553.0759,-247"/>
<polygon fill="#000000" stroke="#000000" points="553.076,-243.5001 543.0759,-247 553.0759,-250.5001 553.076,-243.5001"/>
</g>
<!-- AppRoutingModule -->
<g id="node6" class="node">
<title>AppRoutingModule</title>
<polygon fill="#8dd3c7" stroke="#000000" points="874.2744,-198 871.2744,-202 850.2744,-202 847.2744,-198 745.7256,-198 745.7256,-162 874.2744,-162 874.2744,-198"/>
<text text-anchor="middle" x="810" y="-175.8" font-family="Times,serif" font-size="14.00" fill="#000000">AppRoutingModule</text>
</g>
<!-- AppRoutingModule&#45;&gt;AppModule -->
<g id="edge6" class="edge">
<title>AppRoutingModule&#45;&gt;AppModule</title>
<path fill="none" stroke="#000000" d="M810,-198.0109C810,-220.4852 810,-256 810,-256 810,-256 552.6731,-256 552.6731,-256"/>
<polygon fill="#000000" stroke="#000000" points="552.6731,-252.5001 542.6731,-256 552.6731,-259.5001 552.6731,-252.5001"/>
</g>
<!-- RouterModule  -->
<g id="node10" class="node">
<title>RouterModule </title>
<polygon fill="#fb8072" stroke="#000000" points="1015.6523,-274 914.3477,-274 914.3477,-238 1015.6523,-238 1015.6523,-274"/>
<text text-anchor="middle" x="965" y="-251.8" font-family="Times,serif" font-size="14.00" fill="#000000">RouterModule </text>
</g>
<!-- AppRoutingModule&#45;&gt;RouterModule  -->
<g id="edge9" class="edge">
<title>AppRoutingModule&#45;&gt;RouterModule </title>
<path fill="none" stroke="#000000" stroke-dasharray="5,2" d="M842.1936,-198.0263C842.1936,-222.9773 842.1936,-265 842.1936,-265 842.1936,-265 904.3409,-265 904.3409,-265"/>
<polygon fill="#000000" stroke="#000000" points="904.3409,-268.5001 914.3409,-265 904.3409,-261.5001 904.3409,-268.5001"/>
</g>
<!-- AppComponent  -->
<g id="node8" class="node">
<title>AppComponent </title>
<polygon fill="#80b1d3" stroke="#000000" points="555.439,-342 446.561,-342 446.561,-306 555.439,-306 555.439,-342"/>
<text text-anchor="middle" x="501" y="-319.8" font-family="Times,serif" font-size="14.00" fill="#000000">AppComponent </text>
</g>
<!-- AppModule&#45;&gt;AppComponent  -->
<g id="edge7" class="edge">
<title>AppModule&#45;&gt;AppComponent </title>
<path fill="none" stroke="#000000" stroke-dasharray="1,5" d="M501,-274.2228C501,-274.2228 501,-295.7269 501,-295.7269"/>
<polygon fill="#000000" stroke="#000000" points="497.5001,-295.7269 501,-305.7269 504.5001,-295.727 497.5001,-295.7269"/>
</g>
<!-- RouterModule.forRoot(args) -->
<g id="node9" class="node">
<title>RouterModule.forRoot(args)</title>
<polygon fill="#8dd3c7" stroke="#000000" points="1217.8419,-274 1214.8419,-278 1193.8419,-278 1190.8419,-274 1040.1581,-274 1040.1581,-238 1217.8419,-238 1217.8419,-274"/>
<text text-anchor="middle" x="1129" y="-251.8" font-family="Times,serif" font-size="14.00" fill="#000000">RouterModule.forRoot(args)</text>
</g>
<!-- RouterModule.forRoot(args)&#45;&gt;AppRoutingModule -->
<g id="edge8" class="edge">
<title>RouterModule.forRoot(args)&#45;&gt;AppRoutingModule</title>
<path fill="none" stroke="#000000" d="M1096,-237.8903C1096,-228.103 1096,-218 1096,-218 1096,-218 777.8065,-218 777.8065,-218 777.8065,-218 777.8065,-208.1097 777.8065,-208.1097"/>
<polygon fill="#000000" stroke="#000000" points="781.3065,-208.1096 777.8065,-198.1097 774.3065,-208.1097 781.3065,-208.1096"/>
</g>
<!-- SharedModule -->
<g id="node11" class="node">
<title>SharedModule</title>
<polygon fill="#8dd3c7" stroke="#000000" points="1076.4231,-122 1073.4231,-126 1052.4231,-126 1049.4231,-122 977.5769,-122 977.5769,-86 1076.4231,-86 1076.4231,-122"/>
<text text-anchor="middle" x="1027" y="-99.8" font-family="Times,serif" font-size="14.00" fill="#000000">SharedModule</text>
</g>
<!-- SharedModule&#45;&gt;UserModule -->
<g id="edge18" class="edge">
<title>SharedModule&#45;&gt;UserModule</title>
<path fill="none" stroke="#000000" d="M985.729,-122.2434C985.729,-129.4297 985.729,-136 985.729,-136 985.729,-136 572.3294,-136 572.3294,-136 572.3294,-136 572.3294,-151.8495 572.3294,-151.8495"/>
<polygon fill="#000000" stroke="#000000" points="568.8295,-151.8494 572.3294,-161.8495 575.8295,-151.8495 568.8295,-151.8494"/>
</g>
<!-- SharedModule&#45;&gt;MessageModule -->
<g id="edge10" class="edge">
<title>SharedModule&#45;&gt;MessageModule</title>
<path fill="none" stroke="#000000" d="M993.669,-122.0439C993.669,-134.5633 993.669,-149 993.669,-149 993.669,-149 691.0879,-149 691.0879,-149 691.0879,-149 691.0879,-151.9672 691.0879,-151.9672"/>
<polygon fill="#000000" stroke="#000000" points="687.588,-151.9671 691.0879,-161.9672 694.588,-151.9672 687.588,-151.9671"/>
</g>
<!-- ProductModule -->
<g id="node13" class="node">
<title>ProductModule</title>
<polygon fill="#8dd3c7" stroke="#000000" points="1009.5982,-198 1006.5982,-202 985.5982,-202 982.5982,-198 906.4018,-198 906.4018,-162 1009.5982,-162 1009.5982,-198"/>
<text text-anchor="middle" x="958" y="-175.8" font-family="Times,serif" font-size="14.00" fill="#000000">ProductModule</text>
</g>
<!-- SharedModule&#45;&gt;ProductModule -->
<g id="edge12" class="edge">
<title>SharedModule&#45;&gt;ProductModule</title>
<path fill="none" stroke="#000000" d="M1001.6091,-122.0109C1001.6091,-122.0109 1001.6091,-151.855 1001.6091,-151.855"/>
<polygon fill="#000000" stroke="#000000" points="998.1091,-151.8549 1001.6091,-161.855 1005.1091,-151.855 998.1091,-151.8549"/>
</g>
<!-- CommonModule  -->
<g id="node15" class="node">
<title>CommonModule </title>
<polygon fill="#fb8072" stroke="#000000" points="1399.6677,-198 1284.3323,-198 1284.3323,-162 1399.6677,-162 1399.6677,-198"/>
<text text-anchor="middle" x="1342" y="-175.8" font-family="Times,serif" font-size="14.00" fill="#000000">CommonModule </text>
</g>
<!-- SharedModule&#45;&gt;CommonModule  -->
<g id="edge15" class="edge">
<title>SharedModule&#45;&gt;CommonModule </title>
<path fill="none" stroke="#000000" stroke-dasharray="5,2" d="M1076.2188,-104C1164.8125,-104 1342,-104 1342,-104 1342,-104 1342,-151.9891 1342,-151.9891"/>
<polygon fill="#000000" stroke="#000000" points="1338.5001,-151.989 1342,-161.9891 1345.5001,-151.9891 1338.5001,-151.989"/>
</g>
<!-- FormsModule  -->
<g id="node16" class="node">
<title>FormsModule </title>
<polygon fill="#fb8072" stroke="#000000" points="1266.3283,-198 1167.6717,-198 1167.6717,-162 1266.3283,-162 1266.3283,-198"/>
<text text-anchor="middle" x="1217" y="-175.8" font-family="Times,serif" font-size="14.00" fill="#000000">FormsModule </text>
</g>
<!-- SharedModule&#45;&gt;FormsModule  -->
<g id="edge16" class="edge">
<title>SharedModule&#45;&gt;FormsModule </title>
<path fill="none" stroke="#000000" stroke-dasharray="5,2" d="M1076.4243,-113C1132.7204,-113 1217,-113 1217,-113 1217,-113 1217,-151.692 1217,-151.692"/>
<polygon fill="#000000" stroke="#000000" points="1213.5001,-151.6919 1217,-161.692 1220.5001,-151.692 1213.5001,-151.6919"/>
</g>
<!-- StarComponent  -->
<g id="node17" class="node">
<title>StarComponent </title>
<polygon fill="#fb8072" stroke="#000000" points="1149.8815,-198 1042.1185,-198 1042.1185,-162 1149.8815,-162 1149.8815,-198"/>
<text text-anchor="middle" x="1096" y="-175.8" font-family="Times,serif" font-size="14.00" fill="#000000">StarComponent </text>
</g>
<!-- SharedModule&#45;&gt;StarComponent  -->
<g id="edge17" class="edge">
<title>SharedModule&#45;&gt;StarComponent </title>
<path fill="none" stroke="#000000" stroke-dasharray="5,2" d="M1059.2604,-122.0109C1059.2604,-122.0109 1059.2604,-151.855 1059.2604,-151.855"/>
<polygon fill="#000000" stroke="#000000" points="1055.7604,-151.8549 1059.2604,-161.855 1062.7604,-151.855 1055.7604,-151.8549"/>
</g>
<!-- RouterModule.forChild(args) -->
<g id="node12" class="node">
<title>RouterModule.forChild(args)</title>
<polygon fill="#8dd3c7" stroke="#000000" points="959.7323,-122 956.7323,-126 935.7323,-126 932.7323,-122 778.2677,-122 778.2677,-86 959.7323,-86 959.7323,-122"/>
<text text-anchor="middle" x="869" y="-99.8" font-family="Times,serif" font-size="14.00" fill="#000000">RouterModule.forChild(args)</text>
</g>
<!-- RouterModule.forChild(args)&#45;&gt;UserModule -->
<g id="edge19" class="edge">
<title>RouterModule.forChild(args)&#45;&gt;UserModule</title>
<path fill="none" stroke="#000000" d="M778.3776,-98C682.1153,-98 543.6706,-98 543.6706,-98 543.6706,-98 543.6706,-151.8015 543.6706,-151.8015"/>
<polygon fill="#000000" stroke="#000000" points="540.1707,-151.8015 543.6706,-161.8015 547.1707,-151.8016 540.1707,-151.8015"/>
</g>
<!-- RouterModule.forChild(args)&#45;&gt;MessageModule -->
<g id="edge11" class="edge">
<title>RouterModule.forChild(args)&#45;&gt;MessageModule</title>
<path fill="none" stroke="#000000" d="M778.2075,-110C719.8578,-110 654.9121,-110 654.9121,-110 654.9121,-110 654.9121,-151.9733 654.9121,-151.9733"/>
<polygon fill="#000000" stroke="#000000" points="651.4122,-151.9732 654.9121,-161.9733 658.4122,-151.9733 651.4122,-151.9732"/>
</g>
<!-- RouterModule.forChild(args)&#45;&gt;ProductModule -->
<g id="edge13" class="edge">
<title>RouterModule.forChild(args)&#45;&gt;ProductModule</title>
<path fill="none" stroke="#000000" d="M933.0335,-122.0109C933.0335,-122.0109 933.0335,-151.855 933.0335,-151.855"/>
<polygon fill="#000000" stroke="#000000" points="929.5336,-151.8549 933.0335,-161.855 936.5336,-151.855 929.5336,-151.8549"/>
</g>
<!-- CommonModule -->
<g id="node14" class="node">
<title>CommonModule</title>
<polygon fill="#8dd3c7" stroke="#000000" points="1535.6681,-198 1532.6681,-202 1511.6681,-202 1508.6681,-198 1424.3319,-198 1424.3319,-162 1535.6681,-162 1535.6681,-198"/>
<text text-anchor="middle" x="1480" y="-175.8" font-family="Times,serif" font-size="14.00" fill="#000000">CommonModule</text>
</g>
<!-- CommonModule&#45;&gt;SharedModule -->
<g id="edge14" class="edge">
<title>CommonModule&#45;&gt;SharedModule</title>
<path fill="none" stroke="#000000" d="M1480,-161.9737C1480,-137.0227 1480,-95 1480,-95 1480,-95 1086.3413,-95 1086.3413,-95"/>
<polygon fill="#000000" stroke="#000000" points="1086.3413,-91.5001 1076.3413,-95 1086.3412,-98.5001 1086.3413,-91.5001"/>
</g>
</g>
</svg>
